<?xml version="1.0" encoding="UTF-8"?>
<svg version="1.1" xmlns="http://www.w3.org/2000/svg" width="1042" height="1062">
<path d="M0 0 C11.88550615 8.52315902 19.69649968 18.63074485 22.6875 33.25 C22.95549108 35.68652108 23.15415901 38.13145243 23.29077148 40.57885742 C23.332148 41.28213511 23.37352451 41.98541281 23.41615486 42.71000195 C23.55432438 45.09146657 23.68137203 47.47339589 23.80859375 49.85546875 C23.90949857 51.63631843 24.01108211 53.41712975 24.11326599 55.19790649 C24.39869074 60.20779533 24.6742787 65.21818688 24.94844818 70.22870255 C25.24869172 75.68557464 25.55778626 81.14194628 25.86572266 86.59838867 C26.4110335 96.28360601 26.9510956 105.9691072 27.48794031 115.65479672 C28.33362911 130.91244525 29.18619884 146.16970012 30.04248047 161.42675781 C30.10214749 162.48992025 30.1618145 163.55308269 30.22328961 164.64846218 C30.46950789 169.03544893 30.71574394 173.42243468 30.96200377 177.8094191 C33.03072522 214.66446174 35.09540323 251.51973515 37.14958382 288.37559128 C37.37703722 292.45606933 37.60488118 296.53652527 37.83306694 300.61696243 C38.09834963 305.36112541 38.36284125 310.1053318 38.62669098 314.84957469 C38.72322631 316.58299103 38.82004407 318.31639167 38.91716182 320.04977548 C39.04896977 322.40320272 39.1797562 324.75668453 39.31027222 327.11018372 C39.38359709 328.42508695 39.45692196 329.73999018 39.5324688 331.09473896 C39.63319052 333.14467038 39.6875 335.19759563 39.6875 337.25 C40.23174118 337.27061493 40.77598236 337.29122986 41.3367157 337.31246948 C69.80159278 338.39358005 98.24964427 339.59842311 126.6875 341.25 C126.42485603 339.90511002 126.42485603 339.90511002 126.15690613 338.53305054 C123.89173025 326.71870192 121.98028006 314.8594966 120.11328125 302.9765625 C119.78142291 300.8742732 119.44940401 298.77200925 119.11723328 296.66976929 C118.42752985 292.30155859 117.73939866 287.9331042 117.05249023 283.56445312 C116.17078384 277.95742846 115.2855998 272.35095943 114.39933491 266.7446537 C113.71617395 262.42129897 113.03454354 258.09770406 112.35341454 253.77402878 C112.02727547 251.70462945 111.70071988 249.63529572 111.37374306 247.56602859 C110.91992319 244.69220511 110.46809732 241.81807537 110.0168457 238.94384766 C109.81352379 237.65985832 109.81352379 237.65985832 109.60609436 236.34992981 C108.6875 230.47876682 108.6875 230.47876682 108.6875 228.25 C108.0275 228.04375 107.3675 227.8375 106.6875 227.625 C90.40610458 220.16269376 83.21548021 204.78299749 77.28735352 188.91870117 C74.79403674 182.1277926 72.36010288 175.31587641 69.93835449 168.49920654 C67.90699302 162.78390854 65.86369224 157.07289146 63.81640625 151.36328125 C63.37938385 150.1435965 62.94236145 148.92391174 62.49209595 147.66726685 C59.58140257 139.59418327 56.52932361 131.59370336 53.25794983 123.65974426 C47.2664647 109.08560035 44.02892926 95.86020155 49.3671875 80.38671875 C55.36432745 66.1390756 64.9016523 58.49211498 78.6875 52.25 C82.5752066 50.72234936 86.51053643 49.39799768 90.484375 48.11328125 C91.57967026 47.75186539 92.67496552 47.39044952 93.80345154 47.01808167 C97.34449282 45.85470032 100.89035269 44.70711856 104.4375 43.5625 C105.65724518 43.16637512 106.87699036 42.77025024 108.13369751 42.36212158 C159.07004526 25.8424275 212.08900219 10.04151212 266.0625 10 C266.85574677 9.99932526 267.64899353 9.99865051 268.46627808 9.99795532 C281.40058908 10.01536442 293.98394487 10.61917815 306.6875 13.25 C307.49348633 13.41628906 308.29947266 13.58257812 309.12988281 13.75390625 C343.58854104 21.19995485 374.62829821 40.75910695 394.37646484 70.21142578 C407.02199192 89.87439619 412.75902188 110.76793171 408.16577148 134.14404297 C405.87083215 144.66662432 401.80703163 154.48747698 396.8125 164 C396.48749512 164.62559814 396.16249023 165.25119629 395.82763672 165.89575195 C394.12791102 169.03672925 392.4764774 171.48791453 390.08203125 174.1875 C387.40460688 177.25227829 385.78778511 179.31578727 384.6875 183.25 C385.93412543 189.17646298 389.47340593 194.46703343 392.37011719 199.71142578 C398.23514596 211.01323623 400.97695929 223.87177286 403.46142578 236.25927734 C403.71619753 237.51052084 403.97096928 238.76176434 404.23346138 240.0509243 C405.05975607 244.11563343 405.87441459 248.18263118 406.6875 252.25 C406.82311057 252.92703004 406.95872114 253.60406008 407.09844112 254.30160618 C410.96955048 273.62869851 414.75132281 292.9735208 418.52367973 312.32009315 C420.2144506 320.98971102 421.91211286 329.65786157 423.62695312 338.32275391 C425.14135003 345.97483081 426.64298689 353.62928341 428.12956631 361.28681505 C428.91082587 365.30908865 429.6978282 369.33001487 430.50020981 373.34813309 C439.97480204 420.86082756 439.97480204 420.86082756 428.5 438.5 C418.07885568 452.24797898 404.4965183 457.35280778 388.015625 460.8984375 C386.63986037 461.20295767 385.26427401 461.50828423 383.88885498 461.81436157 C381.02692789 462.4475319 378.16289511 463.06971463 375.296875 463.68408203 C371.67344081 464.46190959 368.05736818 465.26943027 364.44218636 466.08462811 C322.77651194 475.44159686 322.77651194 475.44159686 303.875 463.875 C302.13099798 462.68817914 300.4002234 461.48152968 298.6875 460.25 C298.04039062 459.80011719 297.39328125 459.35023438 296.7265625 458.88671875 C290.9986676 454.49360479 287.45580275 448.29886 283.6875 442.25 C282.85089844 442.8584375 282.01429688 443.466875 281.15234375 444.09375 C277.73925557 446.36314899 274.16686741 447.61675446 270.25 448.75 C269.56421875 448.9564917 268.8784375 449.1629834 268.171875 449.37573242 C261.05470263 451.49413211 253.87863702 453.40055528 246.6875 455.25 C246.66768066 455.94448242 246.64786133 456.63896484 246.62744141 457.35449219 C246.53085952 460.56997525 246.42173252 463.78492277 246.3125 467 C246.26609375 468.63775391 246.26609375 468.63775391 246.21875 470.30859375 C245.60935113 487.47332849 242.36426001 502.34838962 229.4375 514.5 C219.18082445 523.1535313 208.45114556 525.60659872 195.3349762 525.44859314 C193.69467574 525.43783749 193.69467574 525.43783749 192.02123791 525.42686456 C179.7750411 525.30264064 167.55614757 524.7091703 155.32788086 524.07250977 C152.79848871 523.94552016 150.26906882 523.81908234 147.73962402 523.69314575 C141.65271961 523.38869079 135.56612867 523.07855449 129.47965121 522.76569552 C122.36494094 522.40028384 115.2498776 522.04197912 108.13479168 521.68396913 C95.43083303 521.04454317 82.72717038 520.39942214 70.02368164 519.75073242 C57.74195349 519.12358943 45.46006938 518.49963888 33.17797852 517.87963867 C32.04095254 517.82224036 32.04095254 517.82224036 30.88095634 517.76368249 C27.83248944 517.60980203 24.78402187 517.45593469 21.73555332 517.30208692 C8.53991708 516.63607875 -4.65560623 515.96783667 -17.85109672 515.29894766 C-19.26601765 515.22722561 -20.68093903 515.15551259 -22.09586087 515.08380857 C-30.86469343 514.63941788 -39.63346543 514.19386937 -48.40213776 513.74632645 C-50.83522145 513.62226427 -53.26832065 513.49850584 -55.701437 513.37508583 C-62.01121678 513.05487562 -68.32065616 512.72938648 -74.62955022 512.39214826 C-76.36162293 512.30037944 -78.09380411 512.21062538 -79.82610774 512.12332416 C-82.03954303 512.01143703 -84.25241894 511.89187289 -86.46531677 511.7698822 C-87.6446601 511.70771483 -88.82400343 511.64554747 -90.03908443 511.58149624 C-103.49581762 510.21874337 -116.04608122 503.65439543 -125.2734375 493.83984375 C-133.40996311 483.50552099 -136.41894989 472.88587921 -137.06147766 460.04039001 C-137.14512914 458.55392548 -137.14512914 458.55392548 -137.23047054 457.03743136 C-137.41283571 453.76221486 -137.58406092 450.48651792 -137.75512695 447.21069336 C-137.88252236 444.87799971 -138.01055005 442.54534051 -138.13917255 440.2127142 C-138.47405063 434.10050333 -138.79911049 427.98781295 -139.12107897 421.87490988 C-139.30539531 418.38454033 -139.49194202 414.89429901 -139.67950058 411.40410233 C-140.48272526 396.45627284 -141.26557642 381.50743187 -142.03983092 366.55807614 C-142.23399668 362.81081979 -142.42859037 359.06358588 -142.62331581 355.31635857 C-143.27104623 342.85120184 -143.91751891 330.38598085 -144.56229349 317.92067087 C-144.59644123 317.26050427 -144.63058897 316.60033767 -144.66577148 315.92016602 C-144.71705779 314.92865625 -144.71705779 314.92865625 -144.76938019 313.91711598 C-145.32910873 303.09763274 -145.89214711 292.27832442 -146.45657142 281.45908523 C-147.04229252 270.23083423 -147.62543276 259.0024515 -148.20611554 247.7739386 C-148.52978728 241.51605969 -148.85448475 235.25823837 -149.18184471 229.00055122 C-149.4877213 223.15194471 -149.79036522 217.30317962 -150.09056282 211.45427895 C-150.20065939 209.31977105 -150.31188744 207.18532115 -150.42436981 205.05093765 C-150.98281717 194.44178324 -151.50253335 183.87742416 -151.3125 173.25 C-152.24586182 172.95432129 -153.17922363 172.65864258 -154.14086914 172.35400391 C-165.66297002 168.34330879 -174.074591 158.49567682 -179.26953125 147.83984375 C-185.85947299 131.47605582 -181.80332739 113.75856669 -178.31469727 97.11352539 C-177.62172315 93.79681635 -176.96231139 90.4746536 -176.30664062 87.15039062 C-173.50364498 73.240385 -170.87640489 60.22458087 -161.3125 49.25 C-160.85875 48.66863281 -160.405 48.08726562 -159.9375 47.48828125 C-156.36633047 43.34981656 -152.14887963 40.93589636 -147.29296875 38.5546875 C-146.59432205 38.20932953 -145.89567535 37.86397156 -145.17585754 37.50814819 C-136.44431417 33.25639454 -127.47509083 29.57522091 -118.5 25.875 C-116.63501195 25.10125024 -114.77027087 24.32690498 -112.90576172 23.55200195 C-110.00497538 22.34670201 -107.10394976 21.14200324 -104.20196533 19.93959045 C-97.26067704 17.06346112 -90.32901481 14.165049 -83.40234375 11.25390625 C-81.95214088 10.64479401 -81.95214088 10.64479401 -80.47264099 10.02337646 C-76.71995191 8.44713424 -72.96727563 6.87086733 -69.21566772 5.29205322 C-22.55126418 -14.33797522 -22.55126418 -14.33797522 0 0 Z " fill="#FECB03" transform="translate(388.3125,241.75)"/>
<path d="M0 0 C11.88550615 8.52315902 19.69649968 18.63074485 22.6875 33.25 C22.95549108 35.68652108 23.15415901 38.13145243 23.29077148 40.57885742 C23.332148 41.28213511 23.37352451 41.98541281 23.41615486 42.71000195 C23.55432438 45.09146657 23.68137203 47.47339589 23.80859375 49.85546875 C23.90949857 51.63631843 24.01108211 53.41712975 24.11326599 55.19790649 C24.39869074 60.20779533 24.6742787 65.21818688 24.94844818 70.22870255 C25.24869172 75.68557464 25.55778626 81.14194628 25.86572266 86.59838867 C26.4110335 96.28360601 26.9510956 105.9691072 27.48794031 115.65479672 C28.33362911 130.91244525 29.18619884 146.16970012 30.04248047 161.42675781 C30.10214749 162.48992025 30.1618145 163.55308269 30.22328961 164.64846218 C30.46950789 169.03544893 30.71574394 173.42243468 30.96200377 177.8094191 C33.03072522 214.66446174 35.09540323 251.51973515 37.14958382 288.37559128 C37.37703722 292.45606933 37.60488118 296.53652527 37.83306694 300.61696243 C38.09834963 305.36112541 38.36284125 310.1053318 38.62669098 314.84957469 C38.72322631 316.58299103 38.82004407 318.31639167 38.91716182 320.04977548 C39.04896977 322.40320272 39.1797562 324.75668453 39.31027222 327.11018372 C39.38359709 328.42508695 39.45692196 329.73999018 39.5324688 331.09473896 C39.63319052 333.14467038 39.6875 335.19759563 39.6875 337.25 C40.23174118 337.27061493 40.77598236 337.29122986 41.3367157 337.31246948 C69.80159278 338.39358005 98.24964427 339.59842311 126.6875 341.25 C126.42485603 339.90511002 126.42485603 339.90511002 126.15690613 338.53305054 C123.89173025 326.71870192 121.98028006 314.8594966 120.11328125 302.9765625 C119.78142291 300.8742732 119.44940401 298.77200925 119.11723328 296.66976929 C118.42752985 292.30155859 117.73939866 287.9331042 117.05249023 283.56445312 C116.17078384 277.95742846 115.2855998 272.35095943 114.39933491 266.7446537 C113.71617395 262.42129897 113.03454354 258.09770406 112.35341454 253.77402878 C112.02727547 251.70462945 111.70071988 249.63529572 111.37374306 247.56602859 C110.91992319 244.69220511 110.46809732 241.81807537 110.0168457 238.94384766 C109.81352379 237.65985832 109.81352379 237.65985832 109.60609436 236.34992981 C108.6875 230.47876682 108.6875 230.47876682 108.6875 228.25 C108.0275 228.04375 107.3675 227.8375 106.6875 227.625 C90.40610458 220.16269376 83.21548021 204.78299749 77.28735352 188.91870117 C74.79403674 182.1277926 72.36010288 175.31587641 69.93835449 168.49920654 C67.90699302 162.78390854 65.86369224 157.07289146 63.81640625 151.36328125 C63.37938385 150.1435965 62.94236145 148.92391174 62.49209595 147.66726685 C59.58140257 139.59418327 56.52932361 131.59370336 53.25794983 123.65974426 C47.2664647 109.08560035 44.02892926 95.86020155 49.3671875 80.38671875 C55.36432745 66.1390756 64.9016523 58.49211498 78.6875 52.25 C82.5752066 50.72234936 86.51053643 49.39799768 90.484375 48.11328125 C91.57967026 47.75186539 92.67496552 47.39044952 93.80345154 47.01808167 C97.34449282 45.85470032 100.89035269 44.70711856 104.4375 43.5625 C105.65724518 43.16637512 106.87699036 42.77025024 108.13369751 42.36212158 C159.07004526 25.8424275 212.08900219 10.04151212 266.0625 10 C266.85574677 9.99932526 267.64899353 9.99865051 268.46627808 9.99795532 C281.40058908 10.01536442 293.98394487 10.61917815 306.6875 13.25 C307.49348633 13.41628906 308.29947266 13.58257812 309.12988281 13.75390625 C343.58854104 21.19995485 374.62829821 40.75910695 394.37646484 70.21142578 C407.02199192 89.87439619 412.75902188 110.76793171 408.16577148 134.14404297 C405.87083215 144.66662432 401.80703163 154.48747698 396.8125 164 C396.48749512 164.62559814 396.16249023 165.25119629 395.82763672 165.89575195 C394.12791102 169.03672925 392.4764774 171.48791453 390.08203125 174.1875 C387.40460688 177.25227829 385.78778511 179.31578727 384.6875 183.25 C385.93412543 189.17646298 389.47340593 194.46703343 392.37011719 199.71142578 C398.23514596 211.01323623 400.97695929 223.87177286 403.46142578 236.25927734 C403.71619753 237.51052084 403.97096928 238.76176434 404.23346138 240.0509243 C405.05975607 244.11563343 405.87441459 248.18263118 406.6875 252.25 C406.82311057 252.92703004 406.95872114 253.60406008 407.09844112 254.30160618 C410.96955048 273.62869851 414.75132281 292.9735208 418.52367973 312.32009315 C420.2144506 320.98971102 421.91211286 329.65786157 423.62695312 338.32275391 C425.14135003 345.97483081 426.64298689 353.62928341 428.12956631 361.28681505 C428.91082587 365.30908865 429.6978282 369.33001487 430.50020981 373.34813309 C439.97480204 420.86082756 439.97480204 420.86082756 428.5 438.5 C418.07885568 452.24797898 404.4965183 457.35280778 388.015625 460.8984375 C386.63986037 461.20295767 385.26427401 461.50828423 383.88885498 461.81436157 C381.02692789 462.4475319 378.16289511 463.06971463 375.296875 463.68408203 C371.67344081 464.46190959 368.05736818 465.26943027 364.44218636 466.08462811 C322.77651194 475.44159686 322.77651194 475.44159686 303.875 463.875 C302.13099798 462.68817914 300.4002234 461.48152968 298.6875 460.25 C298.04039062 459.80011719 297.39328125 459.35023438 296.7265625 458.88671875 C290.9986676 454.49360479 287.45580275 448.29886 283.6875 442.25 C282.85089844 442.8584375 282.01429688 443.466875 281.15234375 444.09375 C277.73925557 446.36314899 274.16686741 447.61675446 270.25 448.75 C269.56421875 448.9564917 268.8784375 449.1629834 268.171875 449.37573242 C261.05470263 451.49413211 253.87863702 453.40055528 246.6875 455.25 C246.66768066 455.94448242 246.64786133 456.63896484 246.62744141 457.35449219 C246.53085952 460.56997525 246.42173252 463.78492277 246.3125 467 C246.26609375 468.63775391 246.26609375 468.63775391 246.21875 470.30859375 C245.60935113 487.47332849 242.36426001 502.34838962 229.4375 514.5 C219.18082445 523.1535313 208.45114556 525.60659872 195.3349762 525.44859314 C193.69467574 525.43783749 193.69467574 525.43783749 192.02123791 525.42686456 C179.7750411 525.30264064 167.55614757 524.7091703 155.32788086 524.07250977 C152.79848871 523.94552016 150.26906882 523.81908234 147.73962402 523.69314575 C141.65271961 523.38869079 135.56612867 523.07855449 129.47965121 522.76569552 C122.36494094 522.40028384 115.2498776 522.04197912 108.13479168 521.68396913 C95.43083303 521.04454317 82.72717038 520.39942214 70.02368164 519.75073242 C57.74195349 519.12358943 45.46006938 518.49963888 33.17797852 517.87963867 C32.04095254 517.82224036 32.04095254 517.82224036 30.88095634 517.76368249 C27.83248944 517.60980203 24.78402187 517.45593469 21.73555332 517.30208692 C8.53991708 516.63607875 -4.65560623 515.96783667 -17.85109672 515.29894766 C-19.26601765 515.22722561 -20.68093903 515.15551259 -22.09586087 515.08380857 C-30.86469343 514.63941788 -39.63346543 514.19386937 -48.40213776 513.74632645 C-50.83522145 513.62226427 -53.26832065 513.49850584 -55.701437 513.37508583 C-62.01121678 513.05487562 -68.32065616 512.72938648 -74.62955022 512.39214826 C-76.36162293 512.30037944 -78.09380411 512.21062538 -79.82610774 512.12332416 C-82.03954303 512.01143703 -84.25241894 511.89187289 -86.46531677 511.7698822 C-87.6446601 511.70771483 -88.82400343 511.64554747 -90.03908443 511.58149624 C-103.49581762 510.21874337 -116.04608122 503.65439543 -125.2734375 493.83984375 C-133.40996311 483.50552099 -136.41894989 472.88587921 -137.06147766 460.04039001 C-137.14512914 458.55392548 -137.14512914 458.55392548 -137.23047054 457.03743136 C-137.41283571 453.76221486 -137.58406092 450.48651792 -137.75512695 447.21069336 C-137.88252236 444.87799971 -138.01055005 442.54534051 -138.13917255 440.2127142 C-138.47405063 434.10050333 -138.79911049 427.98781295 -139.12107897 421.87490988 C-139.30539531 418.38454033 -139.49194202 414.89429901 -139.67950058 411.40410233 C-140.48272526 396.45627284 -141.26557642 381.50743187 -142.03983092 366.55807614 C-142.23399668 362.81081979 -142.42859037 359.06358588 -142.62331581 355.31635857 C-143.27104623 342.85120184 -143.91751891 330.38598085 -144.56229349 317.92067087 C-144.59644123 317.26050427 -144.63058897 316.60033767 -144.66577148 315.92016602 C-144.71705779 314.92865625 -144.71705779 314.92865625 -144.76938019 313.91711598 C-145.32910873 303.09763274 -145.89214711 292.27832442 -146.45657142 281.45908523 C-147.04229252 270.23083423 -147.62543276 259.0024515 -148.20611554 247.7739386 C-148.52978728 241.51605969 -148.85448475 235.25823837 -149.18184471 229.00055122 C-149.4877213 223.15194471 -149.79036522 217.30317962 -150.09056282 211.45427895 C-150.20065939 209.31977105 -150.31188744 207.18532115 -150.42436981 205.05093765 C-150.98281717 194.44178324 -151.50253335 183.87742416 -151.3125 173.25 C-152.24586182 172.95432129 -153.17922363 172.65864258 -154.14086914 172.35400391 C-165.66297002 168.34330879 -174.074591 158.49567682 -179.26953125 147.83984375 C-185.85947299 131.47605582 -181.80332739 113.75856669 -178.31469727 97.11352539 C-177.62172315 93.79681635 -176.96231139 90.4746536 -176.30664062 87.15039062 C-173.50364498 73.240385 -170.87640489 60.22458087 -161.3125 49.25 C-160.85875 48.66863281 -160.405 48.08726562 -159.9375 47.48828125 C-156.36633047 43.34981656 -152.14887963 40.93589636 -147.29296875 38.5546875 C-146.59432205 38.20932953 -145.89567535 37.86397156 -145.17585754 37.50814819 C-136.44431417 33.25639454 -127.47509083 29.57522091 -118.5 25.875 C-116.63501195 25.10125024 -114.77027087 24.32690498 -112.90576172 23.55200195 C-110.00497538 22.34670201 -107.10394976 21.14200324 -104.20196533 19.93959045 C-97.26067704 17.06346112 -90.32901481 14.165049 -83.40234375 11.25390625 C-81.95214088 10.64479401 -81.95214088 10.64479401 -80.47264099 10.02337646 C-76.71995191 8.44713424 -72.96727563 6.87086733 -69.21566772 5.29205322 C-22.55126418 -14.33797522 -22.55126418 -14.33797522 0 0 Z M-36.1640625 35.8984375 C-36.83915359 36.18243408 -37.51424469 36.46643066 -38.20979309 36.7590332 C-40.45593779 37.70613514 -42.69658179 38.66560477 -44.9375 39.625 C-46.52574075 40.29729059 -48.11437259 40.96865791 -49.70336914 41.63916016 C-53.10905547 43.07723303 -56.51282195 44.51973259 -59.91552734 45.96484375 C-65.44200147 48.30875935 -70.97953072 50.6257681 -76.51953125 52.9375 C-77.456297 53.32853912 -78.39306274 53.71957825 -79.35821533 54.12246704 C-81.23697606 54.9066724 -83.11576006 55.69082199 -84.99456787 56.47491455 C-91.89208089 59.35385658 -98.78709415 62.23842893 -105.67449951 65.14147949 C-108.50053037 66.32901269 -111.3306734 67.50646113 -114.16064453 68.68457031 C-116.07731947 69.48982741 -117.99382803 70.29548065 -119.91015625 71.1015625 C-121.25574867 71.65775772 -121.25574867 71.65775772 -122.62852478 72.22518921 C-123.46017654 72.57707306 -124.29182831 72.92895691 -125.14868164 73.29150391 C-125.88188126 73.5979483 -126.61508087 73.9043927 -127.37049866 74.22012329 C-130.28455051 75.7654951 -131.932867 77.14031052 -133.01493835 80.30326843 C-133.16816055 81.08966202 -133.32138275 81.8760556 -133.47924805 82.6862793 C-133.65920822 83.58118576 -133.8391684 84.47609222 -134.02458191 85.39811707 C-134.20596207 86.36373062 -134.38734222 87.32934418 -134.57421875 88.32421875 C-134.76973831 89.32201859 -134.96525787 90.31981842 -135.16670227 91.34785461 C-135.57804858 93.46088835 -135.98367983 95.57504145 -136.3840332 97.69018555 C-136.99485318 100.91036648 -137.62579958 104.12610214 -138.25976562 107.34179688 C-138.65746085 109.3982037 -139.05398298 111.45483781 -139.44921875 113.51171875 C-139.6366716 114.46721115 -139.82412445 115.42270355 -140.01725769 116.40715027 C-141.02245059 121.77592705 -141.69450982 126.78559864 -141.3125 132.25 C-139.4225823 134.57178836 -139.4225823 134.57178836 -136.26953125 134.49609375 C-131.68979096 134.21127278 -127.45584034 133.36200111 -123 132.3125 C-121.78473633 132.03889648 -121.78473633 132.03889648 -120.54492188 131.75976562 C-116.31339425 130.8383998 -116.31339425 130.8383998 -112.3125 129.25 C-112.32366254 129.9526533 -112.33482508 130.65530661 -112.34632587 131.37925243 C-112.4347614 141.80142047 -111.89509956 152.16876329 -111.3503418 162.57348633 C-111.2465534 164.60272806 -111.1430562 166.63198471 -111.03982544 168.66125488 C-110.75957082 174.15389638 -110.47521332 179.64631852 -110.19007468 185.13870835 C-109.8888574 190.95398091 -109.59136058 196.7694439 -109.29341125 202.58488464 C-108.79032455 212.39418704 -108.28481326 222.20336195 -107.77758789 232.01245117 C-107.07300125 245.63834523 -106.37280337 259.26446205 -105.67351103 272.8906287 C-102.49696806 334.89987211 -102.49696806 334.89987211 -99.18840027 396.9021759 C-98.33303139 412.61148738 -97.56239195 428.32431134 -96.84335423 444.04044437 C-96.74270011 446.16496151 -96.63262777 448.28876152 -96.51855469 450.41259766 C-96.38856962 452.83333852 -96.27269847 455.25491708 -96.17675781 457.67724609 C-96.12100586 458.66418457 -96.06525391 459.65112305 -96.0078125 460.66796875 C-95.96930176 461.49449951 -95.93079102 462.32103027 -95.89111328 463.17260742 C-95.44507528 465.34226384 -95.44507528 465.34226384 -93.83154297 466.97387695 C-90.09496654 468.86679079 -86.45348633 469.00319698 -82.3125 469.25 C-81.58980927 469.29445251 -80.86711853 469.33890503 -80.12252808 469.38470459 C-77.86205641 469.50453345 -75.60192007 469.59563429 -73.33984375 469.6796875 C-71.56925136 469.75163024 -69.79866233 469.82365591 -68.02807617 469.89575195 C-67.09337494 469.93270172 -66.15867371 469.96965149 -65.19564819 470.00772095 C-47.4550909 470.71404961 -29.72714499 471.57935676 -12 472.5625 C18.32864741 474.23847499 48.66971129 475.64881452 79.01083374 477.07714844 C85.83537833 477.39843699 92.65989566 477.7202971 99.484375 478.04296875 C100.58759409 478.0951292 101.69081318 478.14728966 102.82746315 478.20103073 C116.4960719 478.84838703 130.16322319 479.51674735 143.828125 480.23828125 C144.87130072 480.29322817 144.87130072 480.29322817 145.93555069 480.34928513 C152.6520186 480.7034646 159.36802003 481.06500278 166.08349609 481.4375 C171.61692161 481.74116458 177.15093305 482.01085837 182.6875 482.25 C183.4671814 482.28720154 184.24686279 482.32440308 185.0501709 482.36273193 C187.16630953 482.4563253 189.28094492 482.52122987 191.3984375 482.57421875 C192.5332959 482.60990967 193.6681543 482.64560059 194.83740234 482.68237305 C198.473899 482.13069962 199.42147549 481.10160136 201.6875 478.25 C202.26318978 475.55431463 202.26318978 475.55431463 202.14160156 472.56347656 C202.14129944 471.42259583 202.14099731 470.28171509 202.14068604 469.10626221 C202.12004089 467.88010193 202.09939575 466.65394165 202.078125 465.390625 C202.07246521 464.13111023 202.06680542 462.87159546 202.06097412 461.57391357 C202.04238047 458.23290976 202.00647328 454.89300533 201.9621582 451.55230713 C201.92116502 448.14043661 201.90295459 444.72845231 201.8828125 441.31640625 C201.83869664 434.6273008 201.7717465 427.93871386 201.6875 421.25 C202.68410645 421.01925781 203.68071289 420.78851562 204.70751953 420.55078125 C215.18110485 418.11363867 225.62714139 415.57876152 236.04052734 412.89550781 C237.74537708 412.4591455 239.4518194 412.02896592 241.15966797 411.60449219 C243.67023691 410.97981221 246.17514693 410.33586998 248.6796875 409.6875 C249.82327225 409.40918335 249.82327225 409.40918335 250.98995972 409.12524414 C253.92754178 408.34684128 256.22274226 407.69214632 258.45194817 405.57139587 C260.17532407 402.33345991 259.64598915 400.38297949 259.01541138 396.79907227 C258.80463078 395.55062531 258.59385017 394.30217834 258.37668228 393.01589966 C258.14925213 391.77315277 257.92182198 390.53040588 257.6875 389.25 C257.50676815 388.1861911 257.3260363 387.1223822 257.13982773 386.02633667 C256.59432751 382.83512316 256.02083498 379.64997459 255.44091797 376.46484375 C255.22604736 375.27274796 255.01117676 374.08065216 254.78979492 372.85243225 C254.20893735 369.63158545 253.62593999 366.41113428 253.04227209 363.1907959 C252.42858759 359.80016187 251.81863562 356.40885703 251.20852661 353.01757812 C249.13680096 341.50569121 247.05932922 329.99484596 244.97705078 318.48486328 C243.82248375 312.10266491 242.67167256 305.71980056 241.52488434 299.33619976 C240.91974905 295.96878295 240.31260691 292.60175498 239.70067978 289.23556519 C239.02081361 285.49121277 238.3473428 281.745762 237.67529297 278 C237.47271881 276.89342545 237.27014465 275.78685089 237.06143188 274.64674377 C235.26579426 264.56635329 235.26579426 264.56635329 235.6875 260.25 C237.453125 258.08203125 237.453125 258.08203125 239.9375 256.0625 C242.99920288 253.51471027 246.00816487 250.98379087 248.84765625 248.19140625 C249.6351123 247.42703247 249.6351123 247.42703247 250.43847656 246.6472168 C251.46457821 245.64694416 252.48124449 244.63688285 253.48730469 243.61645508 C255.80990175 241.39753131 257.05456293 240.25 260.3359375 240.25 C269.11098634 243.98158223 274.27597052 255.86014459 277.6875 264.25 C280.8177707 273.50557014 283.16017649 283.01704034 285.61018753 292.4707222 C286.59201823 296.24077849 287.59625493 300.00484738 288.59936523 303.76928711 C289.89287436 308.62782199 291.18484887 313.48673426 292.46861267 318.34785461 C297.32081215 336.71515277 302.31012467 355.04487437 307.31160164 373.37199879 C308.93147765 379.307794 310.54708212 385.24472593 312.15855503 391.18280792 C313.1684398 394.9023595 314.18079953 398.62123432 315.19376945 402.33994675 C315.66674803 404.07813511 316.13875885 405.81658712 316.60974312 407.55531693 C317.25667295 409.94267107 317.90729286 412.32898985 318.55883789 414.71508789 C318.74625801 415.41015662 318.93367813 416.10522535 319.12677765 416.82135677 C320.10696213 420.39497823 321.0969884 423.89636902 322.6875 427.25 C329.6398259 430.72616295 341.57153811 426.32912708 348.75 424.5625 C351.01137495 424.02069844 353.2731069 423.48038522 355.53515625 422.94140625 C356.69805176 422.66312988 357.86094727 422.38485352 359.05908203 422.09814453 C362.80135888 421.22338543 366.55160965 420.39898867 370.30859375 419.58984375 C372.15988892 419.18995239 372.15988892 419.18995239 374.04858398 418.78198242 C376.44150005 418.26775833 378.83552358 417.75865638 381.23071289 417.25512695 C382.30957764 417.02140381 383.38844238 416.78768066 384.5 416.546875 C385.45519531 416.34416992 386.41039062 416.14146484 387.39453125 415.93261719 C389.85735926 415.39744586 389.85735926 415.39744586 391.6875 413.25 C392.56506445 406.99463852 391.22687483 400.68371555 389.96484375 394.57421875 C389.78417358 393.66423126 389.60350342 392.75424377 389.4173584 391.81668091 C388.82768025 388.85533881 388.22626036 385.89651 387.625 382.9375 C387.20943797 380.85850271 386.79481683 378.77931714 386.38110352 376.69995117 C385.54686936 372.51112272 384.70878196 368.32309794 383.8671875 364.13574219 C382.25728547 356.11699246 380.68595341 348.09089902 379.125 340.0625 C378.98608337 339.35012177 378.84716675 338.63774353 378.70404053 337.90377808 C376.48626534 326.52564799 374.35898263 315.13187286 372.2545166 303.7322998 C369.39366414 288.23884212 366.45456649 272.76408684 363.375 257.3125 C363.21001007 256.47996704 363.04502014 255.64743408 362.87503052 254.78967285 C357.73291637 228.88573614 351.95909686 204.54566503 331.6875 186.25 C330.68092847 185.256615 329.67786985 184.25953829 328.6875 183.25 C329.41453125 182.36441406 330.1415625 181.47882813 330.890625 180.56640625 C356.6894519 150.06280915 356.6894519 150.06280915 366.06640625 112.41015625 C362.99302229 94.88869924 350.36503299 79.63598874 336.52734375 69.12109375 C296.58364393 42.80330528 245.9529164 49.80784952 201.69300842 58.78140259 C168.29527314 65.66146844 135.64685634 76.38938969 103.37701416 87.30303955 C101.54845699 87.92112077 99.7173725 88.53170917 97.88623047 89.14208984 C96.81646973 89.51156738 95.74670898 89.88104492 94.64453125 90.26171875 C93.72647705 90.57584717 92.80842285 90.88997559 91.86254883 91.21362305 C89.36775374 92.17437271 89.36775374 92.17437271 87.6875 95.25 C88.04688191 99.21129216 89.07597594 102.66426395 90.5234375 106.3515625 C90.91901855 107.37419189 91.31459961 108.39682129 91.72216797 109.45043945 C92.16447754 110.58054443 92.60678711 111.71064941 93.0625 112.875 C96.98795881 123.02333406 100.77966222 133.21236564 104.46875 143.44921875 C104.88661774 144.60578979 105.30448547 145.76236084 105.73501587 146.95397949 C109.1403625 156.38010806 109.1403625 156.38010806 110.81610107 161.0737915 C112.01240468 164.42331123 113.22009131 167.76854296 114.4296875 171.11328125 C114.7846228 172.11751633 115.13955811 173.1217514 115.50524902 174.15641785 C118.92698107 184.24743249 118.92698107 184.24743249 126.0625 191.625 C131.9916735 190.77797521 135.50818676 185.55564772 138.91015625 181.02734375 C139.83872815 179.7702858 140.76543711 178.51184012 141.6875 177.25 C144.73121012 194.54726436 147.66907804 211.85690117 150.34055901 229.21576881 C151.08803117 234.07043976 151.84121144 238.92422633 152.59399414 243.77807617 C152.83987447 245.36412674 152.83987447 245.36412674 153.09072208 246.98221874 C155.17777236 260.43058337 157.29608669 273.87404183 159.41396976 287.3175776 C159.74560145 289.42265629 160.0771766 291.52774389 160.40873909 293.63283348 C161.63848583 301.44020868 162.86876987 309.24749912 164.09933192 317.05474585 C165.25821675 324.40736785 166.41658139 331.76007178 167.57491767 339.11278021 C169.94522909 354.15860673 172.31614491 369.20433794 174.6875 384.25 C126.21752914 382.13960068 77.74898166 380.01112208 29.28793335 377.70384216 C18.75517588 377.20324973 8.22150133 376.72361138 -2.3125 376.25 C-2.3426268 375.59274429 -2.3727536 374.93548859 -2.40379333 374.25831604 C-4.89698406 320.1322633 -7.89899377 266.03508707 -10.9375 211.9375 C-10.98763795 211.04480864 -11.03777591 210.15211728 -11.08943319 209.23237467 C-11.99618086 193.08994863 -12.90414177 176.94759071 -13.81596375 160.80545044 C-14.67929553 145.51980182 -15.5384831 130.23393654 -16.38793945 114.94750977 C-16.42891636 114.21052585 -16.46989327 113.47354193 -16.5121119 112.71422517 C-16.99620988 104.00433437 -17.47476857 95.29416848 -17.94600964 86.58357143 C-18.19275118 82.02309025 -18.44140811 77.46271426 -18.69018555 72.90234375 C-18.81611551 70.5840347 -18.9410762 68.26567285 -19.06518555 65.94726562 C-19.25049222 62.49073865 -19.43935549 59.03442149 -19.62890625 55.578125 C-19.71018517 54.03768524 -19.71018517 54.03768524 -19.79310608 52.46612549 C-19.80661675 42.97535865 -19.80661675 42.97535865 -22.5625 34.25 C-27.16850078 31.61799956 -31.68646058 33.99430728 -36.1640625 35.8984375 Z " fill="#386ABA" transform="translate(388.3125,241.75)"/>
<path d="M0 0 C15.95050845 6.69847339 28.48532406 29.94663648 35 45 C43.47059045 67.46214178 40.63229207 90.53876393 31 112 C29.76656269 114.61561457 28.46927036 117.18971933 27.125 119.75 C26.79999512 120.37559814 26.47499023 121.00119629 26.14013672 121.64575195 C24.44041102 124.78672925 22.7889774 127.23791453 20.39453125 129.9375 C17.71710688 133.00227829 16.10028511 135.06578727 15 139 C16.24662543 144.92646298 19.78590593 150.21703343 22.68261719 155.46142578 C28.54764596 166.76323623 31.28945929 179.62177286 33.77392578 192.00927734 C34.02869753 193.26052084 34.28346928 194.51176434 34.54596138 195.8009243 C35.37225607 199.86563343 36.18691459 203.93263118 37 208 C37.13561057 208.67703004 37.27122114 209.35406008 37.41094112 210.05160618 C41.28205048 229.37869851 45.06382281 248.7235208 48.83617973 268.07009315 C50.5269506 276.73971102 52.22461286 285.40786157 53.93945312 294.07275391 C55.45385003 301.72483081 56.95548689 309.37928341 58.44206631 317.03681505 C59.22332587 321.05908865 60.0103282 325.08001487 60.81270981 329.09813309 C70.28730204 376.61082756 70.28730204 376.61082756 58.8125 394.25 C48.39135568 407.99797898 34.8090183 413.10280778 18.328125 416.6484375 C16.95236037 416.95295767 15.57677401 417.25828423 14.20135498 417.56436157 C11.33942789 418.1975319 8.47539511 418.81971463 5.609375 419.43408203 C2.70676537 420.05717318 -0.19186989 420.69511545 -3.08789062 421.34814453 C-44.18575786 430.61529411 -44.18575786 430.61529411 -60 423 C-60.66 422.34 -61.32 421.68 -62 421 C-60.58318366 421.31182069 -59.16655349 421.62448737 -57.75 421.9375 C-56.56664062 422.19853516 -56.56664062 422.19853516 -55.359375 422.46484375 C-53.94996889 422.78452692 -52.54508604 423.12757801 -51.15356445 423.51782227 C-41.76716207 425.61941446 -32.22287775 423.07293879 -23.0625 421 C-21.63209532 420.68352057 -20.20150811 420.36786514 -18.77075195 420.05297852 C-16.5214269 419.5569673 -14.27255475 419.05921677 -12.02476501 418.55628967 C-7.25768051 417.49032391 -2.48392713 416.46520069 2.29899597 415.4727478 C5.52489588 414.80213004 8.74783719 414.1179188 11.9704895 413.43188477 C13.5099659 413.10691027 15.05054139 412.78709182 16.59225464 412.47290039 C31.0956034 409.50609392 44.41269802 404.89574286 53.74609375 392.72265625 C65.46194168 374.69602738 62.0091988 357.13471773 57.9375 337.4375 C57.52006996 335.36949063 57.10399195 333.30120794 56.68920898 331.23266602 C55.85525382 327.07975985 55.01566296 322.92806434 54.17089844 318.77734375 C52.73302107 311.7008853 51.34183575 304.61573294 49.96762085 297.52667236 C49.55690511 295.40864764 49.14435797 293.29098487 48.73168945 291.17333984 C46.57617588 280.08830439 44.48925404 268.99068591 42.4074707 257.89160156 C40.7031014 248.80803519 38.98312114 239.7274418 37.25976562 230.64746094 C36.43574528 226.30528841 35.61695511 221.96218434 34.80273438 217.61816406 C28.08710497 178.76302613 28.08710497 178.76302613 12.37109375 142.92578125 C11 140 11 140 11.03125 137.53125 C12.32123977 134.16063157 14.13288674 131.21718434 16.0625 128.1875 C29.87180803 105.73489616 40.03995956 80.39820631 33.875 53.5625 C33.30180902 51.69166833 32.6744185 49.83676855 32 48 C31.39671875 46.34677734 31.39671875 46.34677734 30.78125 44.66015625 C24.37601831 28.55811546 14.14456336 14.68793337 1.6875 2.71484375 C0 1 0 1 0 0 Z " fill="#BABCBF" transform="translate(758,286)"/>
<path d="M0 0 C-1.70459157 16.83284172 -14.26054154 31.62461136 -26.7890625 42.3984375 C-29.16527074 44.30609764 -31.55931403 46.17585475 -34 48 C-36.34507586 44.4823862 -36.92673307 41.22068405 -37.69140625 37.1484375 C-37.841577 36.37496979 -37.99174774 35.60150208 -38.14646912 34.80459595 C-38.46311099 33.16608942 -38.77642892 31.52693756 -39.08666992 29.88720703 C-39.5570664 27.40368738 -40.03835455 24.92247661 -40.52148438 22.44140625 C-40.82877891 20.84387564 -41.13543922 19.24622289 -41.44140625 17.6484375 C-41.58308731 16.91684418 -41.72476837 16.18525085 -41.8707428 15.43148804 C-42.835317 10.30315944 -43.47211202 5.19180551 -44 0 C-30.49326634 -8.00399032 -14.24936519 -4.04032633 0 0 Z " fill="#3A6BB8" transform="translate(646,389)"/>
<path d="M0 0 C0.66 1.32 1.32 2.64 2 4 C-7.92613634 12.6853693 -23.49607713 14.78419225 -36 18 C-36.01981934 18.69448242 -36.03963867 19.38896484 -36.06005859 20.10449219 C-36.15664048 23.31997525 -36.26576748 26.53492277 -36.375 29.75 C-36.4059375 30.84183594 -36.436875 31.93367187 -36.46875 33.05859375 C-37.07814887 50.22332849 -40.32323999 65.09838962 -53.25 77.25 C-63.50667555 85.9035313 -74.23635444 88.35659872 -87.3525238 88.19859314 C-88.44605744 88.19142271 -89.53959107 88.18425228 -90.66626209 88.17686456 C-102.9124589 88.05264064 -115.13135243 87.4591703 -127.35961914 86.82250977 C-129.88901129 86.69552016 -132.41843118 86.56908234 -134.94787598 86.44314575 C-141.03478039 86.13869079 -147.12137133 85.82855449 -153.20784879 85.51569552 C-160.32255906 85.15028384 -167.4376224 84.79197912 -174.55270832 84.43396913 C-187.25666697 83.79454317 -199.96032962 83.14942214 -212.66381836 82.50073242 C-224.94554651 81.87358943 -237.22743062 81.24963888 -249.50952148 80.62963867 C-250.64654746 80.57224036 -250.64654746 80.57224036 -251.80654366 80.51368249 C-254.85501056 80.35980203 -257.90347813 80.20593469 -260.95194668 80.05208692 C-274.14758292 79.38607875 -287.34310623 78.71783667 -300.53859672 78.04894766 C-301.95351765 77.97722561 -303.36843903 77.90551259 -304.78336087 77.83380857 C-313.55219343 77.38941788 -322.32096543 76.94386937 -331.08963776 76.49632645 C-333.52272145 76.37226427 -335.95582065 76.24850584 -338.388937 76.12508583 C-344.69965906 75.8048278 -351.00997739 75.47836615 -357.3197968 75.14077497 C-359.8298441 75.00893727 -362.34018747 74.88624445 -364.85076714 74.76505852 C-366.27178654 74.69029237 -367.69278428 74.61511287 -369.11375427 74.53941345 C-370.28584662 74.48087157 -371.45793898 74.42232969 -372.66554928 74.36201382 C-378.82518442 73.69327608 -386.52492563 72.47507437 -391 68 C-389.74463943 68.31038712 -388.48927887 68.62077423 -387.19587708 68.94056702 C-381.7679883 70.13686719 -376.40497219 70.59274052 -370.8659668 70.95092773 C-369.6847333 71.03104064 -368.50349981 71.11115355 -367.28647137 71.19369411 C-345.89211793 72.58507835 -324.46898497 73.54333377 -303.05589509 74.59300542 C-297.10470998 74.88536512 -291.15367248 75.18069419 -285.20263358 75.47601181 C-273.42027791 76.06062551 -261.63779664 76.6426647 -249.85522461 77.22290039 C-238.47366327 77.78339606 -227.0921441 78.34473338 -215.71069336 78.9074707 C-215.00779554 78.9422238 -214.30489771 78.9769769 -213.58069996 79.01278312 C-205.88756502 79.3931773 -198.19444265 79.77382514 -190.50133038 80.15467739 C-189.82323314 80.18824609 -189.1451359 80.22181479 -188.44649025 80.25640072 C-182.91702362 80.53013481 -182.91702362 80.53013481 -180.30958673 80.65924089 C-171.78427394 81.08135532 -163.25890734 81.50236281 -154.73347914 81.92214024 C-149.84008487 82.16319253 -144.94672147 82.40486758 -140.0533638 82.64666176 C-137.80130205 82.75779554 -135.54922675 82.86865515 -133.29713631 82.97920609 C-122.03989818 83.53190533 -110.78572518 84.10655708 -99.53573132 84.79233456 C-83.86774083 85.71256856 -69.62578112 84.23438116 -57 74 C-47.48152499 65.36316762 -42.65095731 54.18319312 -41.74951172 41.46630859 C-41.58166786 37.45659385 -41.46601978 33.44948139 -41.375 29.4375 C-41.3367343 28.03318119 -41.29767788 26.62888369 -41.2578125 25.22460938 C-41.16411971 21.81653396 -41.07839926 18.40845577 -41 15 C-40.17910889 14.78907715 -39.35821777 14.5781543 -38.51245117 14.36083984 C-35.40981204 13.55608804 -32.31102353 12.73811493 -29.21411133 11.91162109 C-27.8840888 11.55944792 -26.55273118 11.21227108 -25.2199707 10.87060547 C-11.59566515 7.55175591 -11.59566515 7.55175591 0 0 Z " fill="#BBBDBF" transform="translate(671,679)"/>
<path d="M0 0 C9.27683214 4.26451325 14.03242293 12.94471195 18 22 C19.45618636 27.1811957 20.30215079 31.93429672 20.60327148 37.32885742 C20.66533201 38.38377821 20.66533201 38.38377821 20.72864628 39.46001053 C20.86680825 41.84147267 20.99385497 44.22339972 21.12109375 46.60546875 C21.22204125 48.38627284 21.32367068 50.16703839 21.42590332 51.94776917 C21.71143924 56.95763178 21.9871025 61.96799792 22.26115036 66.97850037 C22.5610736 72.43614443 22.86904652 77.893335 23.17602539 83.35058594 C23.60071381 90.91393952 24.02375583 98.47738075 24.44285583 106.04104614 C25.52536999 125.57089592 26.62775346 145.09956511 27.73913479 164.62779331 C27.86388876 166.81988064 27.98863983 169.01196813 28.11338806 171.20405579 C28.1758717 172.30201023 28.23835533 173.39996467 28.30273241 174.53119045 C29.13361857 189.1366168 29.95918197 203.74234451 30.78402805 218.34811306 C30.912011 220.61404397 31.04000141 222.87997447 31.16799927 225.14590454 C31.2630065 226.82781496 31.2630065 226.82781496 31.35993308 228.54370338 C31.80979228 236.50267921 32.26241304 244.46149534 32.71603394 252.42025757 C33.27635936 262.25269555 33.83222267 272.08537438 34.38266027 281.91837102 C34.66908636 287.03284151 34.95758164 292.14717488 35.251297 297.26123238 C35.52355439 302.00269297 35.79016806 306.74443609 36.05229867 311.486467 C36.1490174 313.21795539 36.24782616 314.94932848 36.3488673 316.68057001 C36.48587606 319.0334162 36.61540769 321.3865578 36.74302673 323.7399292 C36.8172734 325.05391064 36.89152006 326.36789207 36.96801662 327.72169113 C36.99456831 330.44324941 36.85284097 332.44467804 36 335 C35.01 335 34.02 335 33 335 C32.11632644 319.7852974 31.23509588 304.57045418 30.35607529 289.3554821 C30.26899102 287.84819404 30.18190528 286.34090606 30.09481812 284.83361816 C30.0293705 283.70085518 30.0293705 283.70085518 29.96260071 282.5452081 C29.65212832 277.17280536 29.34091547 271.8004458 29.02944946 266.42810059 C26.96699991 230.84539951 24.94367126 195.26103695 23.02569467 159.67022645 C22.67367783 153.13807287 22.32000364 146.60601094 21.96525574 140.07400513 C21.86496962 138.22668149 21.76468536 136.37935776 21.66440296 134.53203392 C21.51493377 131.77873038 21.36544321 129.025428 21.2158674 126.27213025 C20.62766658 115.4416661 20.04655643 104.61087125 19.47646475 93.77943838 C19.11567142 86.93462991 18.74707536 80.09026857 18.37268209 73.24619067 C18.1561875 69.282878 17.94335095 65.31945672 17.74037552 61.35542679 C17.55324741 57.70126733 17.35584046 54.04780345 17.15080535 50.39460635 C17.04505282 48.4641445 16.94999242 46.53310572 16.85549259 44.60206032 C15.93586713 28.67344724 13.71562738 13.4569962 1.3203125 2.2421875 C0.88460938 1.83226562 0.44890625 1.42234375 0 1 C0 0.67 0 0.34 0 0 Z " fill="#BDBEBF" transform="translate(391,245)"/>
<path d="M0 0 C3.15835107 1.39750048 5.32272825 3.05198234 7.75 5.5 C8.67039062 6.41265625 8.67039062 6.41265625 9.609375 7.34375 C11 9 11 9 11 11 C7.58540447 9.86180149 6.6675842 8.75994482 4.375 6.0625 C3.76398438 5.35222656 3.15296875 4.64195312 2.5234375 3.91015625 C1 2 1 2 0 0 Z " fill="#AFB5BF" transform="translate(391,245)"/>
</svg>
